# xmcd
#
# Track frame offsets:
#	150
#	18761
#	36827
#	58658
#	83431
#	105372
#	127653
#	150886
#	169827
#	183348
#	204271
#	227824
#	245467
#	262476
#	280302
#	295192
#
# Disc length: 4220 seconds
#
# Revision: 0
# Processed by: cddbd v1.5.2PL0 Copyright (c) Steve Scherf et al.
# Submitted via: EZCDAudioConverter 2.1.7.1
#
DISCID=ca107a10
DTITLE=Bobo Yéyé - Belle Époque In Upper Volta 1/3
DYEAR=1900
DGENRE=
TTITLE0=Air Volta
TTITLE1=Bi Kameleou
TTITLE2=Fitri Mawaly
TTITLE3=Djougou Toro
TTITLE4=BB Peyrissac
TTITLE5=Mama Soukous
TTITLE6=Fintalabo
TTITLE7=Wêrê Wêrê Magni
TTITLE8=Nâgô Fâla
TTITLE9=Mousso Koroba Tike
TTITLE10=Dounya Te Soyé
TTITLE11=Beni Djarabi
TTITLE12=Chérie Nawa
TTITLE13=Ma Douce Ledy
TTITLE14=Djougou Malola
TTITLE15=Na Dalo
EXTD=
EXTT0=
EXTT1=
EXTT2=
EXTT3=
EXTT4=
EXTT5=
EXTT6=
EXTT7=
EXTT8=
EXTT9=
EXTT10=
EXTT11=
EXTT12=
EXTT13=
EXTT14=
EXTT15=
PLAYORDER=
